<svg xmlns="http://www.w3.org/2000/svg" width="180" height="180" viewBox="0 0 512 512">
  <rect width="512" height="512" fill="#0B0E14" rx="120"/>
  <rect x="-20" y="200" width="120" height="16" fill="#FF3D00"/>
  <path d="M256.620 306.160L185.900 306.160L185.900 284.060L254.920 284.060Q269.200 284.060 280.590 278.280Q291.980 272.500 298.610 261.790Q305.240 251.080 305.240 236.120Q305.240 221.160 298.610 210.450Q291.980 199.740 280.590 193.790Q269.200 187.840 254.920 187.840L185.900 187.840L185.900 166.080L256.620 166.080Q277.700 166.080 294.360 174.750Q311.020 183.420 320.710 199.060Q330.400 214.700 330.400 236.120Q330.400 257.200 320.710 273.010Q311.020 288.820 294.360 297.490Q277.700 306.160 256.620 306.160M194.740 400L169.920 400L169.920 166.080L194.740 166.080" fill="#F0F2F5"/>
  <circle cx="430" cy="400" r="32" fill="#FF3D00"/>
</svg>
