<svg viewBox="-120 -1620 12510 1740" xmlns="http://www.w3.org/2000/svg"><path d="M500.0 0C224.0 0 0.0 -224 0.0 -500V-1500H500.0V-1000C500.0 -1277 724.0 -1500 1000.0 -1500C1277.0 -1500 1500.0 -1276 1500.0 -1000C1500.0 -1277 1724.0 -1500 2000.0 -1500V-500C2000.0 -224 1776.0 0 1500.0 0C1224.0 0 1000.0 -224 1000.0 -500C1000.0 -224 776.0 0 500.0 0Z M2110.0 0V-1000C2110.0 -1277 2334.0 -1500 2610.0 -1500H3610.0V-1000C3610.0 -724 3386.0 -500 3110.0 -500C3110.0 -224 2886.0 0 2610.0 0Z M4220.0 0C3944.0 0 3720.0 -224 3720.0 -500V-1500H4220.0V-1000C4220.0 -1277 4444.0 -1500 4720.0 -1500C4997.0 -1500 5220.0 -1276 5220.0 -1000C5220.0 -1277 5444.0 -1500 5720.0 -1500V-500C5720.0 -224 5496.0 0 5220.0 0C4944.0 0 4720.0 -224 4720.0 -500C4720.0 -224 4496.0 0 4220.0 0Z M7440.0 0V-1500H8440.0C8717.0 -1500 8940.0 -1276 8940.0 -1000C8940.0 -724 8716.0 -500 8440.0 -500H8940.0V0H8440.0C8164.0 0 7940.0 -224 7940.0 -500V0Z M9050.0 0V-1500H9550.0C9688.0 -1500 9800.0 -1388 9800.0 -1250C9800.0 -1388 9912.0 -1500 10050.0 -1500H10550.0V-1000C10550.0 -862 10438.0 -750 10300.0 -750C10438.0 -750 10550.0 -638 10550.0 -500V0H10050.0C9912.0 0 9800.0 -112 9800.0 -250C9800.0 -112 9688.0 0 9550.0 0Z M10660.0 0V-500H11160.0C10884.0 -500 10660.0 -724 10660.0 -1000C10660.0 -1277 10884.0 -1500 11160.0 -1500H12160.0V-1000H11660.0C11937.0 -1000 12160.0 -776 12160.0 -500C12160.0 -224 11936.0 0 11660.0 0Z" fill="#F0E7CF"/><clipPath id="sunsetO"><path d="M6330.0 0C6054.0 0 5830.0 -224 5830.0 -500V-1000C5830.0 -1277 6054.0 -1500 6330.0 -1500H6830.0C7107.0 -1500 7330.0 -1276 7330.0 -1000V-500C7330.0 -224 7106.0 0 6830.0 0Z"/></clipPath><g clip-path="url(#sunsetO)"><rect x="5790.0" y="-1500.0" width="1580" height="436.3" fill="#3AA173"/><rect x="5790.0" y="-1066.7" width="1580" height="303.0" fill="#F0E7CF"/><rect x="5790.0" y="-766.7" width="1580" height="303.0" fill="#EFA32B"/><rect x="5790.0" y="-466.7" width="1580" height="469.7" fill="#E25E3A"/></g></svg>